<svg xmlns="http://www.w3.org/2000/svg" width="10" height="18" viewBox="0 0 10 18" fill="none"> <path d="M1.64169 5.68718C1.67993 7.01429 3.06557 8.00797 3.06557 8.00797C3.06557 8.00797 4.38982 6.85003 4.35247 5.52276C4.31395 4.19407 2.92756 3.20134 2.92756 3.20134C2.92756 3.20134 1.60434 4.35991 1.64169 5.68718ZM1.01696 10.2806C1.84614 11.3554 3.64665 11.5172 3.64665 11.5172C3.64665 11.5172 4.10316 9.93628 3.27398 8.86154C2.4448 7.78681 0.643258 7.62438 0.643258 7.62438C0.643258 7.62438 0.186888 9.20605 1.01696 10.2806ZM2.48206 14.3155C3.80373 14.8891 5.51212 14.2678 5.51212 14.2678C5.51212 14.2678 5.07671 12.7158 3.75503 12.1422C2.43336 11.5686 0.724974 12.1899 0.724974 12.1899C0.724974 12.1899 1.16038 13.7419 2.48206 14.3155ZM6.29606 17.1344C7.73452 17.4478 9.27695 16.5316 9.27695 16.5316C9.27695 16.5316 8.4863 15.1073 7.0477 14.7931C5.60923 14.4797 4.06784 15.3965 4.06784 15.3965C4.06784 15.3965 4.85759 16.821 6.29606 17.1344ZM5.17884 2.10415C4.25768 3.18695 4.57805 4.76407 4.57805 4.76407C4.57805 4.76407 6.39414 4.58681 7.31529 3.50401C8.23645 2.42121 7.91594 0.843302 7.91594 0.843302C7.91594 0.843302 6.09999 1.02134 5.17884 2.10415Z" stroke="#212121" stroke-linecap="round"></path> </svg>
